<svg width="19" height="19" viewBox="0 0 19 19" fill="none" xmlns="http://www.w3.org/2000/svg">
<path d="M8.5 3H2.66667C2.22464 3 1.80072 3.17559 1.48816 3.48816C1.17559 3.80072 1 4.22464 1 4.66667V16.3333C1 16.7754 1.17559 17.1993 1.48816 17.5118C1.80072 17.8244 2.22464 18 2.66667 18H14.3333C14.7754 18 15.1993 17.8244 15.5118 17.5118C15.8244 17.1993 16 16.7754 16 16.3333V10.5" stroke="black" stroke-opacity="0.25" stroke-width="2" stroke-linecap="round" stroke-linejoin="round"/>
<path d="M14.9227 1.52798C15.2607 1.18992 15.7193 1 16.1973 1C16.6754 1 17.134 1.18992 17.472 1.52798C17.8101 1.86605 18 2.32456 18 2.80265C18 3.28075 17.8101 3.73926 17.472 4.07732L9.39912 12.1502L6 13L6.84978 9.60088L14.9227 1.52798Z" stroke="black" stroke-opacity="0.25" stroke-width="2" stroke-linecap="round" stroke-linejoin="round"/>
</svg>
