<svg width="22" height="26" viewBox="0 0 22 26" fill="none" xmlns="http://www.w3.org/2000/svg">
<path d="M1 5.79997H3.20063H20.8057" stroke="#F76363" stroke-width="2" stroke-linecap="round" stroke-linejoin="round"/>
<path d="M6.50161 5.8V3.4C6.50161 2.76348 6.73346 2.15303 7.14615 1.70294C7.55885 1.25286 8.11858 1 8.70222 1H13.1034C13.6871 1 14.2468 1.25286 14.6595 1.70294C15.0722 2.15303 15.3041 2.76348 15.3041 3.4V5.8M18.605 5.8V22.6C18.605 23.2365 18.3731 23.847 17.9604 24.2971C17.5477 24.7471 16.988 25 16.4044 25H5.4013C4.81766 25 4.25792 24.7471 3.84523 24.2971C3.43253 23.847 3.20068 23.2365 3.20068 22.6V5.8H18.605Z" stroke="#F76363" stroke-opacity="0.76" stroke-width="2" stroke-linecap="round" stroke-linejoin="round"/>
<path d="M8.70215 11.8V19" stroke="#FF6A6A" stroke-width="2" stroke-linecap="round" stroke-linejoin="round"/>
<path d="M13.1038 11.8V19" stroke="#FF6A6A" stroke-width="2" stroke-linecap="round" stroke-linejoin="round"/>
</svg>
